# xmcd CD database file
#
# Track frame offsets:
#	150
#	12977
#	28763
#	49757
#	62233
#	85841
#	103424
#	135195
#	169453
#	181898
#	194567
#	208585
#	221899
#	232185
#	246622
#	262203
#	279766
#	291680
#	309143
#	332288
#
# Disc length: 4652 seconds
#
# Revision: 3
# Processed by: cddbd v1.5.2PL0 Copyright (c) Steve Scherf et al.
# Submitted via: CDex 1.70beta2
#
DISCID=3b122a14
DTITLE=Ella Fitzgerald - Gold - All Her Greatest Hits 2
DYEAR=2003
DGENRE=Jazz
TTITLE0=Manhattan
TTITLE1='s Wonderful
TTITLE2=They Can't Take It Away From Me
TTITLE3=I've Got You Under My Skin
TTITLE4=Stormy Weather
TTITLE5=My Funny Valentine
TTITLE6=Bewitched
TTITLE7=These Foolish Things
TTITLE8=With A Song In My Heart
TTITLE9=There's A Small Hotel
TTITLE10=Night And Day
TTITLE11=Let's Face The Music And Dance
TTITLE12=Puttin' On The Ritz
TTITLE13=Blue Moon
TTITLE14=Isn't This A Lovely Day
TTITLE15=Love Is Here To Stay
TTITLE16=I Only Have Eyes For You
TTITLE17=The Man I Love
TTITLE18=Tenderly
TTITLE19=I Could Write A Book
EXTD=YEAR: 2003
EXTT0=
EXTT1=
EXTT2=
EXTT3=
EXTT4=
EXTT5=
EXTT6=
EXTT7=
EXTT8=
EXTT9=
EXTT10=
EXTT11=
EXTT12=
EXTT13=
EXTT14=
EXTT15=
EXTT16=
EXTT17=
EXTT18=
EXTT19=
PLAYORDER=
